<?xml version="1.0" encoding="UTF-8"?>
<svg version="1.1" viewBox="0 0 1600 1600" width="1280" height="1280" xmlns="http://www.w3.org/2000/svg">
<path transform="translate(0)" d="m0 0h1600v1600h-1600v-1600z" fill="#FAFDFF"/>
<path transform="translate(1047,292)" d="m0 0c2.69 0.0895 5.35 0.122 8.04 0.107 1.24-8.35e-4 1.24-8.35e-4 2.51-0.00169 2.79-0.00304 5.57-0.0132 8.36-0.0233 1.99-0.00356 3.99-0.00664 5.98-0.00929 4.3-0.00656 8.6-0.0161 12.9-0.0279 6.8-0.0183 13.6-0.0279 20.4-0.0359 19.3-0.0242 38.7-0.06 58-0.105 10.7-0.0246 21.4-0.0419 32-0.0516 6.76-0.00653 13.5-0.0221 20.3-0.0443 4.21-0.0118 8.43-0.0151 12.6-0.0161 1.95-0.00214 3.9-0.00771 5.85-0.017 17.9-0.0821 17.9-0.0821 25 1.76 2.17 0.524 4.27 0.699 6.5 0.842 5.01 0.518 9.01 2.29 13.4 4.62 1.21 0.634 1.21 0.634 2.44 1.28 16.6 9.34 28.8 24.8 34.7 42.8 2.95 10.6 1.98 22.6 2.02 33.6 0.0096 1.85 0.0196 3.71 0.03 5.56 0.0269 5 0.048 10 0.068 15 0.022 5.24 0.0493 10.5 0.0761 15.7 0.0498 9.9 0.0948 19.8 0.138 29.7 0.0495 11.3 0.104 22.6 0.16 33.8 0.114 23.2 0.22 46.4 0.323 69.6 1.23 0.197 2.45 0.394 3.72 0.597 1.63 0.266 3.26 0.532 4.89 0.798 1.21 0.193 1.21 0.193 2.44 0.391 20.3 3.32 36.7 13.2 48.8 29.9 12.8 20 13.3 40.1 13.3 63-2.83e-4 1.93-1.22e-4 3.87 4.43e-4 5.8 2.85e-4 5.2-0.00556 10.4-0.0126 15.6-0.00629 5.45-0.00684 10.9-0.00803 16.4-0.0031 10.3-0.0113 20.6-0.0213 30.9-0.0112 11.7-0.0167 23.5-0.0217 35.2-0.0104 24.1-0.028 48.3-0.0503 72.4 0.573 0.00423 1.15 0.00846 1.74 0.0128 13.9 0.103 27.9 0.212 41.8 0.327 6.74 0.0553 13.5 0.109 20.2 0.158 6.5 0.0475 13 0.1 19.5 0.156 2.48 0.0204 4.97 0.0391 7.45 0.0561 3.47 0.0241 6.95 0.0541 10.4 0.0856 1.03 0.00576 2.06 0.0115 3.12 0.0174 0.949 0.00979 1.9 0.0196 2.88 0.0297 0.821 0.00645 1.64 0.0129 2.49 0.0196 2.53 0.148 4.89 0.605 7.36 1.14 1.37 0.117 2.75 0.221 4.12 0.312 13.7 1.52 26 9.28 34.9 19.7 9.52 12.1 14.4 25.6 14.3 40.9l0.0488 3.14c0.00982 15.6-7.18 27.3-17.7 38.4-4.06 3.98-8.13 7.05-13.1 9.75-0.906 0.498-1.81 0.995-2.75 1.51-5.5 2.67-10.5 3.72-16.6 3.97-0.775 0.0374-1.55 0.0748-2.35 0.113-9.9 0.432-19.8 0.48-29.7 0.54-3.55 0.0214-7.09 0.0483-10.6 0.0767-8.79 0.0691-17.6 0.129-26.4 0.189-7.48 0.0509-15 0.106-22.4 0.166-3.5 0.0266-7 0.0474-10.5 0.068-2.13 0.0166-4.25 0.0335-6.38 0.0507-0.974 0.00418-1.95 0.00837-2.95 0.0127-0.885 0.00834-1.77 0.0167-2.68 0.0253-0.771 0.00515-1.54 0.0103-2.34 0.0156-1.97 0.022-1.97 0.022-3.88 1.14 0.00277 1.18 0.00277 1.18 0.00559 2.38 0.0444 19.2 0.0774 38.4 0.098 57.6 0.0103 9.28 0.0242 18.6 0.0473 27.8 0.0201 8.1 0.0329 16.2 0.0373 24.3 0.00258 4.28 0.00856 8.56 0.0233 12.8 0.192 58.3 0.192 58.3-16.2 79.1h-2c-0.238 0.57-0.477 1.14-0.723 1.73-6.17 11-20.7 17.6-32.3 21.3-17.9 3.41-36.8 2.22-55 2.34-2.48 0.0157-4.96 0.0329-7.45 0.0506-11.9 0.0843-23.7 0.156-35.6 0.222-2.87 0.0162-5.74 0.0329-8.61 0.0497-62.4 0.364-125 0.38-187 0.0741-7.32-0.0357-14.6-0.067-22-0.0968-9.88-0.0406-19.8-0.0932-29.6-0.154-3.64-0.0222-7.27-0.0402-10.9-0.0545-4.2-0.0167-8.4-0.0428-12.6-0.0762-1.52-0.0106-3.03-0.0179-4.55-0.0216-22.1-0.06-40.2-5.8-56.5-21.3v-2h-2c-1.84-2.2-1.84-2.2-3.94-5.12-0.69-0.951-1.38-1.9-2.09-2.88-1.93-2.92-3.48-5.83-4.97-8.99-0.362-0.739-0.724-1.48-1.1-2.24-0.318-0.684-0.637-1.37-0.965-2.07-0.321-0.677-0.642-1.35-0.973-2.05-3.14-8.57-3.24-16.7-3.18-25.8 0.00221-1.41 0.00351-2.81 0.00398-4.22 0.00292-3.01 0.0121-6.02 0.0263-9.04 0.0224-4.76 0.0304-9.52 0.0365-14.3 0.0113-7.52 0.0321-15 0.0569-22.6 0.0445-13.5 0.0775-27 0.1-40.5 0.00842-4.74 0.0224-9.47 0.041-14.2 0.0106-2.94 0.0172-5.87 0.0228-8.81 0.00514-2.02 0.0154-4.04 0.0257-6.05 0.00152-1.19 0.00303-2.39 0.00459-3.62 0.00352-1.04 0.00704-2.08 0.0107-3.15 0.0479-2.46 0.0479-2.46-1.12-4.45-0.0963-1.72-0.131-3.44-0.133-5.16-0.00129-1.02-0.00258-2.04-0.00391-3.1 0.00387-1.07 0.00773-2.14 0.0117-3.25-0.0058-1.61-0.0058-1.61-0.0117-3.25 0.00193-1.53 0.00193-1.53 0.00391-3.1 0.00169-1.41 0.00169-1.41 0.00342-2.85 0.129-2.31 0.129-2.31 1.13-4.31 0.0969-2.16 0.13-4.33 0.125-6.5 0.00258-1.17 0.00516-2.33 0.00781-3.53 0.072-2.9 0.072-2.9-1.13-4.97-0.0952-1.59-0.128-3.19-0.129-4.79-0.00315-0.994-0.0063-1.99-0.00955-3.01 0.00202-1.08 0.00405-2.15 0.00613-3.26-9.57e-4 -1.1-0.00191-2.2-0.0029-3.34-6.81e-4 -2.33 0.00117-4.67 0.00534-7 0.00535-3.58 5.36e-5 -7.16-0.00635-10.7 6.61e-4 -2.26 0.00194-4.53 0.00391-6.79-0.00304-1.62-0.00304-1.62-0.00613-3.26 0.00315-0.994 0.0063-1.99 0.00955-3.01 7.96e-4 -0.878 0.00159-1.76 0.00241-2.66 0.127-2.13 0.127-2.13 1.13-4.13 0.0905-1.46 0.118-2.92 0.115-4.39 1.41e-4 -0.928 2.82e-4 -1.86 4.27e-4 -2.81-0.00496-1.03-0.00992-2.05-0.015-3.11-0.00126-1.08-0.00252-2.17-0.00383-3.29-0.00541-3.66-0.0179-7.32-0.0303-11-0.00519-2.61-0.0099-5.23-0.0142-7.84-0.00972-5.64-0.0228-11.3-0.0377-16.9-0.0234-8.93-0.0364-17.9-0.0477-26.8-4e-3 -3.05-0.00807-6.11-0.0122-9.16-0.00102-0.763-0.00204-1.53-0.00309-2.31-0.0117-8.69-0.0256-17.4-0.0404-26.1-0.00135-0.795-0.0027-1.59-0.0041-2.41-0.0222-12.9-0.052-25.7-0.0839-38.6-0.0324-13.2-0.0533-26.4-0.0643-39.6-0.00722-8.15-0.0239-16.3-0.0528-24.4-0.0213-6.25-0.0268-12.5-0.0266-18.8-0.00242-2.56-0.00999-5.12-0.0231-7.68-0.0172-3.5-0.0158-7-0.00988-10.5-0.00942-1.01-0.0188-2.02-0.0285-3.06 0.0984-17.4 9.18-33.4 20.9-45.9 12.2-11.8 26.9-19.1 43.9-20.2 2.92-0.233 5.76-0.715 8.64-1.21-0.0445-1.18-0.0445-1.18-0.0898-2.38-0.712-19.3-1.08-38.5-1.04-57.8 0.00259-1.37 0.00517-2.73 0.00772-4.1 0.0174-8.51 0.05-17 0.0868-25.5 0.0286-6.93 0.0416-13.9 0.0524-20.8 0.0166-10.2 0.0549-20.3 0.113-30.5 0.0319-5.62 0.0558-11.2 0.0597-16.9 0.00424-5.35 0.0327-10.7 0.0783-16 0.0129-1.98 0.0175-3.96 0.0129-5.94-0.0386-21.4 5.64-38.2 20.6-54.1 10.3-9.68 23.1-17.1 37.1-19 1.75-0.344 3.5-0.698 5.25-1.06 14.1-2.81 14.1-2.81 19.8-0.938z" fill="#9A5DF2"/>
<path transform="translate(1320,565)" d="m0 0c8.36 0.228 15.7 3.19 23 7 0.829 0.428 1.66 0.856 2.51 1.3 10.7 5.74 17.4 13 22.9 23.8 0.519 1.02 0.519 1.02 1.05 2.06 3.08 6.34 3.58 11.8 3.58 18.8 0.33 0.66 0.66 1.32 1 2 0.0967 2.2 0.126 4.4 0.127 6.6 0.00156 0.686 0.00312 1.37 0.00473 2.08 4e-3 2.31 8.22e-4 4.62-0.00232 6.93 0.00135 1.65 0.00313 3.31 0.00531 4.96 0.00458 4.51 0.00278 9.01-3.79e-4 13.5-0.00253 4.73-1.83e-4 9.47 0.00139 14.2 0.00182 7.98-5.84e-4 16-0.00534 23.9-0.0054 9.16-0.00371 18.3 0.00183 27.5 0.00458 7.89 0.00516 15.8 0.00256 23.7-0.00154 4.7-0.00182 9.4 0.00154 14.1 0.0125 20.2-0.102 40.4-1.14 60.5-14.4 0.0934-28.8 0.164-43.2 0.207-6.69 0.0209-13.4 0.0487-20.1 0.0945-6.45 0.0434-12.9 0.0674-19.4 0.0778-2.46 0.0074-4.93 0.0219-7.39 0.0434-3.45 0.0289-6.89 0.033-10.3 0.0312-1.54 0.0216-1.54 0.0216-3.1 0.0436-6.92-0.0405-6.92-0.0405-10.1-2.38-1.51-2.23-2.92-4.45-4.24-6.8-2.54-4.36-5.37-8.28-8.52-12.2-1.54-1.95-2.95-3.93-4.35-5.98-2.01-2.71-3.61-4.22-6.31-6.12v-2c-1.32-0.66-2.64-1.32-4-2v-2c-0.597-0.275-1.19-0.549-1.81-0.832-2.1-1.12-3.53-2.24-5.25-3.86-16.8-14.6-41.2-25.1-63.4-26.8-2.89-0.242-5.65-0.517-8.5-1.06-7.38-1.05-14.7-0.576-22.1 0.562-2.29 0.156-4.58 0.3-6.88 0.438-5.58 0.388-10.7 1.06-16.1 2.56-0.949 0.244-1.9 0.487-2.88 0.738-21.9 6.09-43.7 19.7-59.1 36.3-0.605 0.647-1.21 1.29-1.83 1.96-15.3 17-28.4 39.3-31.9 62.2-0.289 1.81-0.289 1.81-1.29 4.81-1.11 7.62-1.1 15.3-1.12 23-0.00459 0.92-0.00918 1.84-0.0139 2.79l0.0061 2.65c0.00169 1.17 0.00169 1.17 0.00342 2.37 0.0604 2.19 0.0604 2.19 0.649 4.25 0.48 1.95 0.48 1.95 0.292 5.63-0.125 25.6 15.5 52.9 32.2 71.3 0.535 0.605 1.07 1.21 1.62 1.83 15.9 17 38.2 29.5 60.4 36.2 0.735 0.259 1.47 0.518 2.23 0.785 10.1 3.12 20.5 2.74 31 2.72 3.31-9.67e-4 6.61 0.0406 9.92 0.085 17.3 0.0989 32.7-2.45 48.4-9.96 0.829-0.384 1.66-0.769 2.51-1.16 6.36-3.01 12.2-6.47 18-10.5 0.882-0.522 1.76-1.04 2.67-1.58 2.37-1.32 2.37-1.32 4.14-3.23 1.93-1.93 3.78-3.36 6-4.94 4.41-3.28 7.74-6.99 11.2-11.2 0.406-0.49 0.812-0.98 1.23-1.48 6.47-7.81 12-15.8 17.1-24.6 1.68-2.89 1.68-2.89 2.68-3.89 5.72-1.06 11.4-1.23 17.2-1.35 0.96-0.0232 1.92-0.0463 2.91-0.0702 2.02-0.0474 4.03-0.0927 6.05-0.136 3.09-0.0675 6.18-0.145 9.28-0.224 1.96-0.0449 3.93-0.0892 5.89-0.133 1.39-0.0358 1.39-0.0358 2.8-0.0724 0.858-0.0169 1.72-0.0337 2.6-0.0511 0.754-0.017 1.51-0.0339 2.28-0.0514 1.98 0.089 1.98 0.089 4.98 1.09 1.67 0.0729 3.35 0.0869 5.02 0.0659 1.53-0.0146 1.53-0.0146 3.1-0.0296 1.1-0.0146 2.21-0.0291 3.34-0.0442 2.33-0.0175 4.67-0.0344 7-0.0508 3.68-0.0309 7.36-0.0664 11-0.113 3.55-0.0424 7.1-0.0658 10.6-0.0864 1.1-0.0186 2.19-0.0372 3.32-0.0564 1.03-0.00345 2.06-0.00691 3.12-0.0105 0.901-0.00968 1.8-0.0194 2.73-0.0293 3.33 0.44 5.72 1.81 8.68 3.35 0.0233 20.6 0.041 41.1 0.0518 61.7 0.00516 9.55 0.0122 19.1 0.0236 28.6 0.00995 8.32 0.0164 16.6 0.0186 25 0.00131 4.41 0.00439 8.82 0.0116 13.2 0.00677 4.14 0.00889 8.29 0.00738 12.4 2.76e-4 1.52 0.00228 3.05 0.0061 4.57 0.00495 2.08 0.00379 4.15 0.00105 6.22 0.00138 1.74 0.00138 1.74 0.00279 3.53-0.123 2.71-0.123 2.71-1.12 4.71 0.0619 1.76 0.0619 1.76 0.125 3.56 0.0444 4.93-1.26 8.91-3.12 13.4-0.329 0.806-0.657 1.61-0.996 2.44-3.67 8.12-9.49 15.6-17 20.6h-2v2c-15.7 8.21-15.7 8.21-25 8-0.99 0.33-1.98 0.66-3 1-1.89 0.0931-3.77 0.126-5.66 0.127-1.18 0.00282-2.36 0.00564-3.57 0.00854-1.3-0.00202-2.59-0.00405-3.92-0.00613-1.38 0.00135-2.75 0.00314-4.13 0.00531-3.74 0.00456-7.48 0.00279-11.2-3.79e-4 -3.91-0.00253-7.82-1.85e-4 -11.7 0.00139-6.56 0.00182-13.1-5.8e-4 -19.7-0.00534-7.6-0.00544-15.2-0.00368-22.8 0.00183-6.52 0.00453-13 0.00518-19.5 0.00256-3.89-0.00156-7.79-0.00176-11.7 0.00154-3.66 0.00288-7.32 8.97e-4 -11-0.00489-1.99-0.00196-3.98 0.00102-5.97 0.00413-1.18-0.00282-2.35-0.00564-3.56-0.00854-1.03-3.77e-4 -2.05-7.54e-4 -3.11-0.00114-2.42-0.126-2.42-0.126-4.42-1.13-1.43-0.094-2.86-0.126-4.29-0.127-0.9-0.00282-1.8-0.00564-2.73-0.00854-0.99 0.00202-1.98 0.00405-3 0.00613-1.04-0.00175-2.08-0.0035-3.15-0.00531-3.45-0.00442-6.91-0.00148-10.4 0.00189-2.39-6.73e-4 -4.78-0.00164-7.17-0.0029-5.02-0.00148-10 6.76e-4 -15.1 0.00534-6.44 0.0057-12.9 0.00242-19.3-0.00357-4.94-0.00361-9.88-0.00247-14.8 1.28e-4 -2.38 6.69e-4 -4.75-1.58e-4 -7.13-0.00248-3.32-0.00253-6.63 0.00132-9.95 0.0069-0.99-0.00202-1.98-0.00405-3-0.00613-0.9 0.00282-1.8 0.00564-2.73 0.00854-0.785 3.77e-4 -1.57 7.54e-4 -2.38 0.00114-2 0.00753-2 0.00753-3.91 1.13-1.52 0.089-3.04 0.115-4.56 0.109-0.96-0.00126-1.92-0.00252-2.91-0.00381-1.06-0.00666-2.11-0.0133-3.2-0.0202-1.11-0.00318-2.22-0.00636-3.37-0.00964-3.69-0.0126-7.39-0.0335-11.1-0.056-1.89-0.0104-1.89-0.0104-3.82-0.0211-6-0.0336-12-0.0713-18-0.115-6.9-0.0505-13.8-0.0849-20.7-0.105-5.99-0.0188-12-0.0593-18-0.107-2.54-0.0173-5.08-0.028-7.61-0.0319-20.6-0.0412-36.8-1.42-52.1-16.5-13-13.3-15.7-27.2-16-45.3-0.0307-1.65-0.0307-1.65-0.062-3.34-0.066-3.71-0.124-7.41-0.18-11.1-0.021-1.32-0.0419-2.63-0.0635-3.99-0.574-36.5-0.53-73-0.518-109 0.00232-7.11 0.00256-14.2 0.00148-21.3-1.53e-4 -1.03-3.06e-4 -2.06-4.64e-4 -3.12-3.2e-4 -2.09-6.44e-4 -4.18-9.73e-4 -6.27-0.00282-19.4 3.78e-4 -38.8 0.0058-58.2 0.00448-16.5 0.00368-33-9.19e-4 -49.6-0.00539-19.4-0.00744-38.7-0.00439-58.1 3.18e-4 -2.08 6.33e-4 -4.15 9.43e-4 -6.23 1.54e-4 -1.02 3.09e-4 -2.04 4.68e-4 -3.09 8.52e-4 -7.08-5.9e-4 -14.2-0.00295-21.2-0.0218-72.7-0.0218-72.7 0.52-99.5 0.0151-0.869 0.0303-1.74 0.0459-2.63 0.329-17.8 3.05-34.6 15.8-48 10.1-9.57 21.2-14.5 34.8-16.7 2.41 0.215 2.41 0.215 4 1 0.974 2.92 1.12 4.75 1.1 7.79-0.0033 0.971-0.00661 1.94-0.01 2.94-0.0083 1.05-0.0166 2.09-0.0251 3.17-0.00379 1.08-0.00757 2.15-0.0115 3.26-0.0164 4.61-0.0445 9.22-0.0715 13.8-0.018 3.36-0.0302 6.73-0.042 10.1-0.0083 1.05-0.0166 2.09-0.0251 3.17-0.0033 0.971-0.00661 1.94-0.01 2.94-0.00524 0.855-0.0105 1.71-0.0159 2.59 0.0245 2.38 0.0245 2.38 1.11 5.2-0.0412 0.99-0.0825 1.98-0.125 3-0.0297 14.3 9.08 27.5 18.7 37.4 1.43 1.64 1.43 1.64 1.43 3.64 0.598 0.0619 1.2 0.124 1.81 0.188 3.05 1.13 3.65 3.04 5.19 5.81-1.01 0.0155-1.01 0.0155-2.05 0.0312-7.04 0.108-14.1 0.223-21.1 0.341-2.63 0.0433-5.25 0.085-7.88 0.125-3.78 0.0579-7.56 0.122-11.3 0.186-1.17 0.0167-2.34 0.0334-3.55 0.0506-1.65 0.0299-1.65 0.0299-3.34 0.0604-0.964 0.0155-1.93 0.0311-2.92 0.0471-2.99 0.169-5.86 0.653-8.81 1.16-2.64 0.0666-5.24 0.0957-7.88 0.0625-0.688-0.00451-1.38-0.00902-2.09-0.0137-1.68-0.0117-3.36-0.0296-5.04-0.0488-0.206 1.26-0.412 2.52-0.625 3.81-0.116 0.708-0.232 1.42-0.352 2.14-0.219 2.36-0.219 2.36 1.98 5.04 1.95 0.435 1.95 0.435 4.22 0.337 0.886-9.22e-4 1.77-0.00184 2.69-0.0028 0.975-0.0162 1.95-0.0324 2.95-0.049 1.02-0.00486 2.05-0.00971 3.1-0.0147 2.23-0.0123 4.47-0.0316 6.7-0.0568 3.59-0.0405 7.18-0.0637 10.8-0.082 3.76-0.0195 7.51-0.0401 11.3-0.0661 11.6-0.08 23.2-0.0512 34.8 0.00898 3.39 0.0175 6.77 0.0328 10.2 0.0475 4.66 0.0203 9.33 0.0414 14 0.0632 7.5 0.035 15 0.068 22.5 0.101 10.6 0.0464 21.2 0.0935 31.7 0.141 0.663 0.00299 1.33 0.00598 2.01 0.00906 6.7 0.0303 13.4 0.0606 20.1 0.091 112 0.608 112 0.608 225 0.0091 5.5-0.0629 11-0.122 16.5-0.181 10.6-0.115 21.2-0.234 31.8-0.355-0.33-4.29-0.66-8.58-1-13-2.94 0.0533-2.94 0.0533-5.93 0.108-6.49 0.116-13 0.228-19.5 0.335-3.93 0.0654-7.86 0.133-11.8 0.205-3.8 0.0698-7.6 0.134-11.4 0.195-1.44 0.024-2.89 0.0499-4.33 0.0778-7.1 0.136-14 0.249-21.1-0.921-0.33-1.32-0.66-2.64-1-4 0.681-0.33 1.36-0.66 2.06-1 11.2-7.64 19-22 21.9-35 1-7.37 1.18-14.6 1.25-22.1 0.0329-2.51 0.0661-5.03 0.0996-7.54 0.0477-3.94 0.0922-7.88 0.131-11.8 0.0395-3.82 0.0911-7.64 0.144-11.5 0.00841-1.19 0.0168-2.37 0.0255-3.6 0.0166-1.09 0.0333-2.18 0.0504-3.31 0.0103-0.963 0.0206-1.93 0.0312-2.92 0.272-2.31 0.272-2.31 2.27-4.31z" fill="#FAFDFF"/>
<path transform="translate(1056 311)" d="m0 0c0.832-0.00227 1.66-0.00453 2.52-0.00687 2.8-0.00636 5.61-0.00551 8.41-0.00469 2-0.00299 4.01-0.00639 6.01-0.0102 5.46-0.00886 10.9-0.0112 16.4-0.0118 4.55-9.48e-4 9.11-0.00463 13.7-0.00817 10.8-0.00815 21.5-0.0106 32.3-0.00987 11.1 6e-4 22.2-0.00993 33.3-0.0257 9.52-0.0131 19-0.0184 28.5-0.0178 5.68 2.55e-4 11.4-0.00258 17-0.0132 5.35-0.0097 10.7-0.00974 16.1-0.00248 1.96 0.00104 3.92-0.0013 5.88-0.00736 18.4-0.0533 34.3 1.67 48.1 15.3 17.1 18.4 17.2 38.1 17.2 61.8 0.00599 2.51 0.0128 5.03 0.0204 7.54 0.0158 6.09 0.0221 12.2 0.0232 18.3 9.54e-4 4.95 0.00508 9.91 0.0114 14.9 0.0176 14.1 0.0268 28.2 0.0253 42.2-7.99e-5 0.757-1.6e-4 1.51-2.42e-4 2.29-8.18e-5 0.758-1.64e-4 1.52-2.48e-4 2.3-8.13e-4 12.3 0.0183 24.6 0.0465 36.9 0.0288 12.6 0.0425 25.3 0.0408 37.9-6.62e-4 7.09 0.00475 14.2 0.0264 21.3 0.0202 6.67 0.0195 13.3 0.00497 20-0.00209 2.44 0.0026 4.88 0.0147 7.32 0.109 23.5 0.109 23.5-4.5 34.3-0.301 0.76-0.602 1.52-0.911 2.3-5.16 12.5-17.8 21.8-29.7 27.4-5.39 2.06-10.4 2.44-16.2 2.47-0.652 0.00494-1.3 0.00988-1.98 0.015-2.17 0.0153-4.35 0.0237-6.52 0.0321-1.56 0.00959-3.13 0.0196-4.69 0.03-4.25 0.027-8.49 0.0481-12.7 0.068-4.47 0.022-8.94 0.0493-13.4 0.0761-7.53 0.0443-15.1 0.085-22.6 0.123-10.5 0.0535-21.1 0.113-31.6 0.174-8.26 0.0477-16.5 0.0937-24.8 0.139-0.868 0.00482-1.74 0.00963-2.63 0.0146-16.7 0.092-33.3 0.182-50 0.208-0.994 0.00298-1.99 0.00595-3.01 0.00902-9.79 0.00463-19.6-0.23-29.4-1.05-1-1-1-1-1.12-3.38 3.8e-4 -1.07 7.59e-4 -2.14 0.00115-3.24-0.00199-1.23-0.00398-2.46-0.00603-3.72 0.00285-1.38 0.0058-2.76 0.00883-4.14-4.36e-4 -1.45-0.00131-2.91-0.00259-4.36-0.00225-4.01 0.00178-8.02 0.00678-12 0.0043-4.32 0.00286-8.64 0.0021-13-5.25e-4 -7.49 0.00262-15 0.00824-22.5 0.00811-10.8 0.0107-21.7 0.012-32.5 0.00219-17.6 0.00885-35.1 0.0183-52.7 0.00917-17.1 0.0163-34.1 0.0205-51.2 2.63e-4 -1.05 5.25e-4 -2.1 7.96e-4 -3.19 0.0013-5.27 0.00257-10.5 0.00381-15.8 0.0104-43.8 0.028-87.6 0.0503-131 3.14-1.57 6.5-1.14 9.96-1.13z" fill="#FAFDFF"/>
<path transform="translate(1169,750)" d="m0 0c0.33 0.33 0.66 0.66 1 1 1.22 0.247 2.43 0.495 3.69 0.75 15.3 3.4 28.6 10.8 42.3 18.2v2c1.09 0.364 1.09 0.364 2.2 0.734 3.17 1.43 5.15 3.14 7.68 5.52 2.79 2.6 5.55 5.11 8.56 7.44 8.84 7.52 17.1 19.2 22.6 29.3v4c-0.66 0.0103-1.32 0.0206-2 0.0312-6.93 0.109-13.9 0.223-20.8 0.341-2.58 0.0431-5.16 0.0848-7.74 0.125-3.73 0.0584-7.45 0.122-11.2 0.186-1.7 0.0251-1.7 0.0251-3.44 0.0506-16.4 0.296-30.2 1.54-43.9 11.3-0.654 0.428-1.31 0.856-1.98 1.3-11.2 7.68-18.9 20-21.6 33.2-1.85 12-1.73 25.4 3.62 36.5 0.498 1.09 0.995 2.17 1.51 3.29 6.72 13.6 17 22.5 31.4 27.6 5.5 1.7 11 2.25 16.7 2.39 1.29 0.0335 2.58 0.067 3.91 0.102 1.02 0.0238 1.02 0.0238 2.07 0.0481 2.15 0.0505 4.3 0.107 6.44 0.166 6.1 0.165 12.2 0.322 18.3 0.469 3.74 0.0903 7.48 0.19 11.2 0.295 1.42 0.0382 2.85 0.0729 4.27 0.104 1.99 0.0435 3.97 0.0997 5.96 0.157 1.13 0.0281 2.26 0.0561 3.42 0.0851 2.79 0.31 2.79 0.31 5.79 2.31-6.5 9.98-13.3 19.3-21.4 28.1-1.8 1.95-1.8 1.95-2.6 4.95-2.81 3.12-5.25 5.19-9 7-0.66 0.99-1.32 1.98-2 3-1.32 0.684-2.66 1.35-4 2l-1.56 1.56c-1.44 1.44-1.44 1.44-4.44 2.44-0.942 0.949-0.942 0.949-1.9 1.92-9.06 8.99-28.2 13.2-40.4 16.6-1.81 0.48-1.81 0.48-3.71 1.51-1.46 0.11-2.93 0.159-4.4 0.177-0.912 0.0128-1.82 0.0257-2.76 0.0389-1.49 0.0111-1.49 0.0111-3.01 0.0224-1.03 0.00807-2.05 0.0161-3.11 0.0245-2.18 0.0139-4.37 0.0246-6.55 0.0324-3.29 0.017-6.59 0.0609-9.88 0.105-11.8 0.0881-22.1-0.441-33.3-4.4-0.9-0.293-1.8-0.586-2.73-0.888-2.34-0.78-4.65-1.61-6.96-2.49-0.806-0.305-1.61-0.609-2.44-0.923-32.5-12.5-58-38.9-72.1-70.6-5.07-12.2-7.95-24-8.05-37.2-0.00807-0.975-0.0161-1.95-0.0245-2.95-0.0138-2.06-0.0245-4.13-0.0324-6.19-0.0115-2.08-0.0318-4.16-0.0615-6.24-0.183-12.8 0.337-24.3 4.36-36.5 0.288-0.898 0.576-1.8 0.872-2.72 0.753-2.21 1.57-4.37 2.44-6.53 0.295-0.746 0.59-1.49 0.894-2.26 2.67-6.56 5.99-12.5 9.79-18.5 0.746-1.27 0.746-1.27 1.51-2.56 18-29.4 47.8-47.4 80.2-56.5 17.4-3.86 38.7-3.69 56.3-0.961z" fill="#9B5DF3"/>
<path transform="translate(1212 831)" d="m0 0c1.91-0.00552 1.91-0.00552 3.87-0.0111 3.53-0.00997 7.06-0.0137 10.6-0.0164 3.81-0.00392 7.62-0.0135 11.4-0.0222 9.2-0.0197 18.4-0.0298 27.6-0.0387 4.34-0.00439 8.67-0.00975 13-0.015 14.4-0.017 28.8-0.0315 43.3-0.0387 3.74-0.00191 7.48-0.00383 11.2-0.00579 1.39-7.26e-4 1.39-7.26e-4 2.82-0.00147 15-0.0083 30.1-0.0336 45.1-0.0661 15.5-0.0331 30.9-0.0511 46.4-0.0543 8.68-0.00216 17.4-0.0109 26-0.0365 7.39-0.0217 14.8-0.0297 22.2-0.02 3.77 0.00453 7.53 0.00271 11.3-0.0168 4.09-0.021 8.18-0.0106 12.3 0.00253 1.18-0.011 2.36-0.0219 3.57-0.0332 11.5 0.0892 21 2.94 29.7 10.5 0.605 0.463 1.21 0.926 1.83 1.4 8.4 6.61 14.8 17.3 16.8 27.8 1.15 9.88 1.47 19-3.68 27.8-0.757 1.52-1.51 3.04-2.25 4.56-0.577 1.13-1.15 2.27-1.75 3.44h-2c-0.21 0.721-0.42 1.44-0.637 2.18-1.72 3.55-4.1 5.55-7.18 7.88-0.856 0.656-0.856 0.656-1.73 1.33-5.68 4.13-11.6 6.08-18.5 7.61-0.629 0.175-1.26 0.35-1.91 0.531-2.2 0.492-4.13 0.594-6.38 0.595-0.854 0.00261-1.71 0.00522-2.59 0.0079-1.4-0.00335-1.4-0.00335-2.83-0.00676-0.996 0.00156-1.99 0.00312-3.02 0.00473-3.35 4e-3 -6.7 8.24e-4 -10.1-0.00232-2.4 0.00135-4.8 0.00314-7.2 0.00531-5.86 0.0041-11.7 0.00348-17.6 5.87e-4 -4.8-0.00227-9.59-0.00256-14.4-0.00148-1.03 2.3e-4 -1.03 2.3e-4 -2.08 4.64e-4 -1.39 3.2e-4 -2.79 6.44e-4 -4.18 9.73e-4 -13.1 0.00286-26.2-4.31e-4 -39.3-0.0058-11.1-0.00442-22.2-0.00374-33.3 9.19e-4 -13 0.00543-25.9 0.00741-38.9 0.00439-1.4-3.18e-4 -2.81-6.33e-4 -4.21-9.43e-4 -0.69-1.54e-4 -1.38-3.09e-4 -2.09-4.68e-4 -4.73-8.43e-4 -9.47 6.02e-4 -14.2 0.00295-26.8 0.0112-53.5-0.0461-80.3-0.409-2.45-0.0317-4.91-0.059-7.36-0.0813-36.3-0.348-36.3-0.348-51.1-12.6-0.697-0.545-1.39-1.09-2.11-1.65-7.89-6.88-12.5-18.1-13.2-28.3-0.433-13.7 2.16-24.4 11.3-35 0.593-0.812 1.19-1.62 1.8-2.46 11.2-12.9 27.9-14.7 43.8-14.7z" fill="#FAFDFF"/>
<path transform="translate(1031,292)" d="m0 0c0.33 0.66 0.66 1.32 1 2l2 1c-0.33 5.61-0.66 11.2-1 17-1.96 0.413-3.92 0.825-5.94 1.25-15.4 3.59-26.8 11.3-35.8 24.5-0.798 1.4-1.57 2.82-2.31 4.25-0.455 0.817-0.91 1.63-1.38 2.48-3.3 6.98-4.04 13.4-4.25 21-0.0365 1.1-0.0729 2.21-0.111 3.35-0.538 19-0.403 37.9-0.391 56.9 0.00257 5.81 1.74e-4 11.6-0.00139 17.4-0.00181 9.75 5.51e-4 19.5 0.00534 29.3 0.00544 11.2 0.00368 22.4-0.00183 33.6-0.00457 9.7-0.00516 19.4-0.00256 29.1 0.00154 5.76 0.00182 11.5-0.00154 17.3-0.048 29.1-0.048 29.1 0.5 58.1 0.0277 1.08 0.0554 2.16 0.084 3.27 0.357 9.48 2.36 17.5 7.72 25.4 1.83 2.77 1.83 2.77 1.83 4.77 0.99 0.33 1.98 0.66 3 1 1.21 1.47 2.43 2.93 3.62 4.42 8.59 9.82 22.3 13.3 34.4 16.6-0.812 2.44-0.812 2.44-2 5-3.58 1.19-6.86 1.16-10.6 1.17-0.741 0.00333-1.48 0.00666-2.25 0.0101-1.57 0.00506-3.13 0.00741-4.7 0.00725-2.39 0.00219-4.78 0.0204-7.18 0.0393-1.52 0.00293-3.05 0.00492-4.57 0.00586-0.714 0.00719-1.43 0.0144-2.16 0.0218-3.66-0.0168-6.52-0.0841-9.56-2.25-0.99-1.48-0.99-1.48-2-3-0.99-0.33-1.98-0.66-3-1-10.6-10.7-21.2-26-21.1-41.6 0.0412-1.13 0.0825-2.27 0.125-3.44-0.33-0.66-0.66-1.32-1-2-0.0904-1.66-0.118-3.33-0.114-5 1.13e-4 -1.56 1.13e-4 -1.56 2.29e-4 -3.15 0.00516-1.13 0.0103-2.25 0.0156-3.42 0.00141-1.15 0.00283-2.3 0.00429-3.49 0.00561-3.69 0.0182-7.38 0.0309-11.1 0.00501-2.5 0.00958-4.99 0.0137-7.49 0.011-6.13 0.0278-12.3 0.0488-18.4-1.6 0.148-3.2 0.3-4.8 0.452-0.89 0.084-1.78 0.168-2.7 0.254-13.1 1.53-26.1 9.35-34.5 19.3-3.17 5.07-5.63 10.5-8 16-0.382 0.82-0.763 1.64-1.16 2.48-2.92 8.69-2.2 18.6-2.4 27.7-0.021 0.919-0.0419 1.84-0.0635 2.79-0.727 33.3-0.529 66.5-0.518 99.8 0.00231 7.12 0.00256 14.2 0.00148 21.3-1.53e-4 1.03-3.06e-4 2.05-4.64e-4 3.11-3.2e-4 2.09-6.44e-4 4.17-9.73e-4 6.26-0.00283 19.4 3.95e-4 38.9 0.0058 58.3 0.00445 16.5 0.0037 33-9.19e-4 49.5-0.00541 19.3-0.00743 38.7-0.00439 58 3.18e-4 2.08 6.33e-4 4.16 9.43e-4 6.25 1.54e-4 1.02 3.09e-4 2.05 4.68e-4 3.1 8.48e-4 7.06-5.8e-4 14.1-0.00295 21.2-0.0112 36.8-0.00469 73.7 0.582 110 0.0291 1.91 0.0291 1.91 0.0588 3.87 0.0557 3.53 0.118 7.06 0.184 10.6 0.0163 1.01 0.0326 2.02 0.0494 3.06 0.311 15 2.82 27.6 13.3 39.1 0.646 0.761 1.29 1.52 1.96 2.3 8.02 8.84 19.6 15 31.6 15.9 2.99 0.0938 5.97 0.126 8.95 0.137 1.13 0.0117 2.26 0.0233 3.42 0.0353 3.71 0.0358 7.43 0.0578 11.1 0.0792 2.58 0.0213 5.17 0.0432 7.75 0.0659 5.4 0.0453 10.8 0.0844 16.2 0.118 6.25 0.0389 12.5 0.0882 18.8 0.143 6.02 0.053 12 0.1 18.1 0.144 2.56 0.0191 5.12 0.0395 7.68 0.0611 3.57 0.029 7.13 0.0514 10.7 0.0718 1.06 0.0098 2.13 0.0196 3.23 0.0297 1.45 0.00622 1.45 0.00622 2.93 0.0126 0.843 0.0057 1.69 0.0114 2.56 0.0173 2.1 0.0183 2.1 0.0183 4.04-1.11 2.2-0.0971 4.41-0.128 6.61-0.129 0.68-0.00175 1.36-0.0035 2.06-0.00531 2.26-0.00442 4.52-0.00148 6.78 0.00189 1.58-6.74e-4 3.16-0.00164 4.73-0.0029 3.32-0.00148 6.64 6.76e-4 9.96 0.00534 4.22 0.00564 8.43 0.00245 12.6-0.00357 3.27-0.00365 6.53-0.00244 9.8 1.28e-4 1.55 6.59e-4 3.1-1.24e-4 4.65-0.00248 9.64-0.0114 19.1 0.301 28.8 1.14v1c-2.19 0.17-4.37 0.336-6.56 0.5-1.22 0.0928-2.44 0.186-3.69 0.281-3.59 0.21-7.15 0.256-10.7 0.219 0.371 0.846 0.743 1.69 1.12 2.56 1.06 4.16 0.308 6.46-1.12 10.4 1.32 1.32 2.64 2.64 4 4-24.3 0.0468-48.6 0.082-73 0.104-11.3 0.0103-22.6 0.0243-33.9 0.0473-9.85 0.02-19.7 0.0328-29.5 0.0373-5.21 0.0026-10.4 0.0087-15.6 0.0233-4.91 0.0136-9.82 0.0178-14.7 0.0148-1.8 5.48e-4 -3.59 0.00449-5.39 0.0122-22.9 0.0935-41.7-4.91-58.9-21.2v-2h-2c-1.84-2.2-1.84-2.2-3.94-5.12-0.69-0.951-1.38-1.9-2.09-2.88-1.93-2.92-3.48-5.83-4.97-8.99-0.362-0.739-0.724-1.48-1.1-2.24-0.318-0.684-0.637-1.37-0.965-2.07-0.321-0.677-0.642-1.35-0.973-2.05-3.14-8.57-3.24-16.7-3.18-25.8 0.00221-1.41 0.00351-2.81 0.00398-4.22 0.00292-3.01 0.0121-6.02 0.0263-9.04 0.0224-4.76 0.0304-9.52 0.0365-14.3 0.0113-7.52 0.0321-15 0.0569-22.6 0.0445-13.5 0.0775-27 0.1-40.5 0.00842-4.74 0.0224-9.47 0.041-14.2 0.0106-2.94 0.0172-5.87 0.0228-8.81 0.00514-2.02 0.0154-4.04 0.0257-6.05 0.00152-1.19 0.00303-2.39 0.00459-3.62 0.00352-1.04 0.00704-2.08 0.0107-3.15 0.0479-2.46 0.0479-2.46-1.12-4.45-0.0963-1.72-0.131-3.44-0.133-5.16-0.00129-1.02-0.00258-2.04-0.00391-3.1 0.00387-1.07 0.00773-2.14 0.0117-3.25-0.0058-1.61-0.0058-1.61-0.0117-3.25 0.00193-1.53 0.00193-1.53 0.00391-3.1 0.00169-1.41 0.00169-1.41 0.00342-2.85 0.129-2.31 0.129-2.31 1.13-4.31 0.0969-2.16 0.13-4.33 0.125-6.5 0.00258-1.17 0.00516-2.33 0.00781-3.53 0.072-2.9 0.072-2.9-1.13-4.97-0.0952-1.59-0.128-3.19-0.129-4.79-0.00315-0.994-0.0063-1.99-0.00955-3.01 0.00202-1.08 0.00405-2.15 0.00613-3.26-9.57e-4 -1.1-0.00191-2.2-0.0029-3.34-6.81e-4 -2.33 0.00117-4.67 0.00534-7 0.00535-3.58 5.36e-5 -7.16-0.00635-10.7 6.61e-4 -2.26 0.00194-4.53 0.00391-6.79-0.00304-1.62-0.00304-1.62-0.00613-3.26 0.00315-0.994 0.0063-1.99 0.00955-3.01 7.96e-4 -0.878 0.00159-1.76 0.00241-2.66 0.127-2.13 0.127-2.13 1.13-4.13 0.0905-1.46 0.118-2.92 0.115-4.39 1.41e-4 -0.928 2.82e-4 -1.86 4.27e-4 -2.81-0.00496-1.03-0.00992-2.05-0.015-3.11-0.00126-1.08-0.00252-2.17-0.00383-3.29-0.00541-3.66-0.0179-7.32-0.0303-11-0.00519-2.61-0.0099-5.23-0.0142-7.84-0.00972-5.64-0.0228-11.3-0.0377-16.9-0.0234-8.93-0.0364-17.9-0.0477-26.8-4e-3 -3.05-0.00807-6.11-0.0122-9.16-0.00102-0.763-0.00204-1.53-0.00309-2.31-0.0117-8.69-0.0256-17.4-0.0404-26.1-0.00135-0.795-0.0027-1.59-0.0041-2.41-0.0222-12.9-0.052-25.7-0.0839-38.6-0.0324-13.2-0.0533-26.4-0.0643-39.6-0.00722-8.15-0.0239-16.3-0.0528-24.4-0.0213-6.25-0.0268-12.5-0.0266-18.8-0.00242-2.56-0.00999-5.12-0.0231-7.68-0.0172-3.5-0.0158-7-0.00988-10.5-0.00942-1.01-0.0188-2.02-0.0285-3.06 0.0984-17.4 9.18-33.4 20.9-45.9 12.2-11.8 26.9-19.1 43.9-20.2 2.92-0.233 5.76-0.715 8.64-1.21-0.0445-1.18-0.0445-1.18-0.0898-2.38-0.712-19.3-1.08-38.5-1.04-57.8 0.00259-1.37 0.00517-2.73 0.00772-4.1 0.0174-8.51 0.05-17 0.0868-25.5 0.0286-6.93 0.0416-13.9 0.0524-20.8 0.0166-10.2 0.0549-20.3 0.113-30.5 0.0319-5.62 0.0558-11.2 0.0597-16.9 0.00424-5.35 0.0327-10.7 0.0783-16 0.0129-1.98 0.0175-3.96 0.0129-5.94-0.0386-21.4 5.64-38.2 20.6-54.1 10.3-9.71 23.1-17 37.1-19 1.71-0.361 3.42-0.735 5.12-1.12 1.92-0.433 1.92-0.433 3.88-0.875z" fill="#2C56BF"/>
<path transform="translate(1191 500)" d="m0 0c0.601 0.553 1.2 1.11 1.82 1.68 2.48 2.74 2.48 2.74 4.8 2.41 2.64-1.16 4.08-2.83 6.07-4.91 5.97-4.22 12-6.95 19-9 0.969-0.392 1.94-0.784 2.94-1.19 9.88-2.62 20.7-0.266 29.7 4.31 9.05 5.5 15.6 12.4 20.4 21.9 0.491 0.961 0.491 0.961 0.992 1.94 5.47 11.6 4.09 27.2 0.00781 39.1-2.81 5.9-6.19 10.6-11 15-0.908 1.09-1.8 2.2-2.69 3.31-0.763 0.887-1.53 1.77-2.31 2.69h-2c-0.33 0.99-0.66 1.98-1 3-1.53 1.51-1.53 1.51-3.5 3.12-4.13 3.48-7.88 7.25-11.6 11.2-1.88 1.72-1.88 1.72-3.88 1.72-0.227 0.557-0.454 1.11-0.688 1.69-1.69 2.97-3.78 5.03-6.31 7.31h-2c-0.495 1.49-0.495 1.49-1 3-1.43 1.4-1.43 1.4-3.31 2.94-4.5 3.79-8.58 7.92-12.6 12.2-1.31 1.34-2.67 2.63-4.04 3.91h-2c-0.268 0.639-0.536 1.28-0.812 1.94-1.19 2.06-1.19 2.06-4.19 3.06-0.33 0.99-0.66 1.98-1 3-1.62 0.938-1.62 0.938-4 1-4.35-2.1-7.87-4.24-11-8v-2c-0.853-0.362-0.853-0.362-1.72-0.73-2.73-1.52-4.54-3.34-6.71-5.58-0.791-0.808-1.58-1.62-2.4-2.45-0.714-0.739-1.43-1.48-2.16-2.24-3.5-3.58-7.13-6.9-10.9-10.2-2.45-2.19-4.75-4.5-7.06-6.84-2.93-2.96-5.87-5.92-8.81-8.88-0.769-0.777-1.54-1.55-2.33-2.36-4.24-4.26-8.55-8.34-13.1-12.3-6.32-5.46-11.8-11.1-15.8-18.5-0.598-1.13-1.2-2.27-1.81-3.44-1.25-3.75-1.4-6.55-1.2-10.4 0.0974-2.14 0.0974-2.14-0.547-4.26-0.445-1.86-0.445-1.86 0.555-3.86-0.0581-1.46-0.146-2.92-0.25-4.38-0.0895-8.84 4.19-18.2 10.2-24.6 20-19.1 47-22.9 69.3-5.18z" fill="#2C56BF"/>
<path transform="translate(1033,313)" d="m0 0c1.74 1.74 1.13 4.09 1.13 6.45 0.00322 1.19 0.00645 2.38 0.00977 3.61-0.00147 1.34-0.00304 2.68-0.00469 4.02 0.00187 1.41 0.00417 2.82 0.00687 4.23 0.00615 3.89 0.00598 7.78 0.00481 11.7-2.03e-4 4.19 0.00531 8.38 0.0101 12.6 0.00833 8.22 0.0111 16.4 0.0116 24.7 4.74e-4 6.68 0.00253 13.4 0.0057 20 0.00881 18.9 0.0134 37.9 0.0127 56.8-4e-5 1.02-7.99e-5 2.04-1.21e-4 3.1-4.09e-5 1.02-8.18e-5 2.05-1.24e-4 3.1-4.06e-4 16.6 0.00915 33.1 0.0233 49.7 0.0144 17 0.0213 34 0.0204 51-3.32e-4 9.55 0.00242 19.1 0.0132 28.6 0.00911 8.13 0.0113 16.3 0.00449 24.4-0.00327 4.15-0.00332 8.3 0.00535 12.4 0.00787 3.8 0.00643 7.6-0.00228 11.4-0.00226 2.02 0.00529 4.04 0.0132 6.06-0.0254 6.7-0.501 12.7-2.26 19.1-17.2-4.38-32.1-11.5-42-27-5.4-9.52-7.32-17.6-7.62-28.4-0.0376-1.2-0.0752-2.4-0.114-3.64-0.526-19.3-0.415-38.6-0.404-57.9 0.00257-5.81 1.73e-4 -11.6-0.00139-17.4-0.00181-9.75 5.48e-4 -19.5 0.00534-29.3 0.00544-11.2 0.00367-22.4-0.00183-33.6-0.00457-9.7-0.00516-19.4-0.00256-29.1 0.00154-5.76 0.00181-11.5-0.00154-17.3-0.0202-41-0.0202-41 0.492-56.8 0.0267-0.987 0.0534-1.97 0.0808-2.99 0.652-15.9 9.18-28.8 20.6-39.5 7.61-6.17 20-13.1 30-10z" fill="#FAFDFF"/>
<path transform="translate(1156,746)" d="m0 0c2.77 0.268 5.54 0.498 8.32 0.719 9.65 1.01 21 3.27 29.6 8.09 2.31 1.31 4.69 2.45 7.08 3.61 13.3 6.46 26.4 14.4 35.8 26 1.36 1.73 1.36 1.73 3.62 3.85 7.36 7.54 14.2 16.4 18.7 25.9 0.811 1.92 0.811 1.92 2.93 2.74 2.58 0.112 5.13 0.165 7.71 0.174 0.795 0.00669 1.59 0.0134 2.41 0.0203 1.73 0.0141 3.46 0.026 5.19 0.0359 2.74 0.0164 5.47 0.0396 8.21 0.0649 7.78 0.0709 15.6 0.131 23.3 0.182 4.76 0.0318 9.51 0.073 14.3 0.12 1.81 0.016 3.63 0.0284 5.44 0.0369 2.54 0.0121 5.07 0.0363 7.61 0.0631 1.13 8.84e-4 1.13 8.84e-4 2.28 0.00179 3.73 0.0524 5.37 0.18 8.55 2.3-0.33 0.557-0.66 1.11-1 1.69-1.13 2.62-1.16 4.49-1 7.31h-2v2c-1.1 0.00497-1.1 0.00497-2.22 0.01-17.8 0.0814-35.7 0.174-53.5 0.277-8.63 0.05-17.3 0.0965-25.9 0.134-7.53 0.033-15.1 0.0729-22.6 0.121-3.98 0.0252-7.96 0.047-11.9 0.0606-3.76 0.0129-7.51 0.0351-11.3 0.064-2.02 0.0133-4.04 0.017-6.06 0.0203-10.3 0.0938-19.7 0.857-28.9 5.69-1.14 0.585-2.28 1.17-3.46 1.77-10 5.88-16.5 15.3-20.3 26.2-2.92 12.7-1.44 25.3 4.72 36.7 3.59 5.66 8.22 9.79 13.4 13.9 0.92 0.775 0.92 0.775 1.86 1.57 4.12 3.06 8.5 4.12 13.5 5.03 1.06 0.195 1.06 0.195 2.14 0.394 7.15 1.24 14.2 1.48 21.5 1.52 1.4 0.017 2.79 0.0352 4.19 0.0544 3.71 0.0475 7.42 0.0774 11.1 0.103 3.1 0.0242 6.19 0.0594 9.29 0.0947 22.7 0.258 45.5 0.328 68.2 0.199 10.5-0.0492 20.8 0.00834 31.2 1.04v1c-0.915 0.0606-1.83 0.121-2.77 0.184-1.19 0.0838-2.38 0.168-3.6 0.254-1.18 0.0812-2.37 0.162-3.59 0.246-2.95 0.127-2.95 0.127-5.04 1.32-2.12-0.438-2.12-0.438-4-1v3c0.99 0.66 1.98 1.32 3 2-0.33 0.66-0.66 1.32-1 2l-2-1v2c-2.31-0.66-4.62-1.32-7-2v2c-1.9 0.0376-1.9 0.0376-3.84 0.0759-4.72 0.0945-9.43 0.195-14.2 0.296-2.04 0.0432-4.08 0.0849-6.11 0.125-2.94 0.0581-5.87 0.122-8.81 0.186-1.36 0.0251-1.36 0.0251-2.74 0.0506-8.61-0.368-8.61-0.368-16 2.83-0.354 0.666-0.708 1.33-1.07 2.02-0.417 0.743-0.835 1.49-1.26 2.25-0.423 0.799-0.846 1.6-1.28 2.42-4.81 8.47-10.3 15.5-16.8 22.8-1.05 1.29-2.09 2.58-3.12 3.88-3.4 3.97-7.52 7.26-11.9 10.1h-2c-0.33 0.99-0.66 1.98-1 3-1.48 1.22-1.48 1.22-3.4 2.42-1.07 0.669-1.07 0.669-2.17 1.35-0.781 0.468-1.56 0.936-2.37 1.42-1.21 0.729-1.21 0.729-2.45 1.47-21.2 12.5-41.7 18.2-66.4 18-3.25-0.0268-6.49-8.72e-5 -9.73 0.0317-17 0.0297-32.4-2.59-47.8-9.93-0.825-0.383-1.65-0.766-2.5-1.16-11.4-5.42-21.6-12.3-31.2-20.6-1.45-1.25-1.45-1.25-2.93-2.52-21.4-18.8-37.5-45.9-41.1-74.5-0.123-2.98-0.14-5.91-0.00781-8.89 0.166-2.17 0.166-2.17-0.992-4.11-0.0957-1.45-0.131-2.91-0.133-4.37-0.00209-0.88-0.00419-1.76-0.00635-2.67 0.00467-0.937 0.00935-1.87 0.0142-2.84 0.00338-0.953 0.00677-1.91 0.0103-2.89 0.239-32.7 12.9-65 35.6-88.8 0.846-0.804 1.69-1.61 2.56-2.44 0.598-0.642 1.2-1.28 1.81-1.95 19-20 47.6-35 75.2-36.1 3.42-0.441 6.79-0.964 10.2-1.56 7.32-0.841 14.6-0.826 21.8 0.562zm-47 6c-1.1 0.267-2.2 0.534-3.33 0.809-8.52 2.32-16.2 6.16-23.9 10.3-1.43 0.759-2.88 1.5-4.33 2.23-18.7 9.73-39.3 28.2-48.4 47.6-0.664 1.41-1.36 2.81-2.09 4.19-2.86 5.43-5.25 11-7.52 16.7-0.434 1.07-0.434 1.07-0.876 2.15-5.19 13.3-6 25.7-5.94 39.8 0.0085 3.04-0.0203 6.08-0.052 9.12-0.0412 11.7 1 21.9 4.5 33.1 0.29 1.05 0.581 2.11 0.88 3.19 3.79 13.7 12.3 26.8 21.1 37.8 0.424 0.53 0.849 1.06 1.29 1.6 1.39 1.73 2.8 3.44 4.21 5.15 0.427 0.519 0.853 1.04 1.29 1.57 3.69 4.35 7.85 8.01 12.2 11.7 0.625 0.537 1.25 1.07 1.89 1.63 11.1 9.4 22.5 15.4 36.1 20.4 0.742 0.273 1.48 0.546 2.25 0.828 11.1 4.02 21.2 6.48 33.1 6.47 1.06 0.00429 2.11 0.00857 3.2 0.013 2.22 0.00571 4.44 0.00627 6.66 0.00191 3.38-0.00317 6.76 0.0204 10.1 0.0457 2.17 0.00227 4.33 0.00298 6.5 0.00195 1.5 0.0138 1.5 0.0138 3.04 0.0279 6.12-0.0401 10.5-0.924 16.1-3.39 1.39-0.495 2.79-0.986 4.18-1.46 7.41-2.56 14.8-5.1 21.8-8.54 0.898-0.424 1.8-0.848 2.72-1.29 4.93-1.98 4.93-1.98 8.28-5.71 0.804-0.309 1.61-0.619 2.44-0.938 2.86-0.908 2.86-0.908 4.56-4.06l4-2c0.66-0.99 1.32-1.98 2-3l4-2c2.26-1.99 3.86-3.75 5.37-6.36 1.67-2.7 3.49-4.73 5.7-7.01 6.59-7.18 12.9-15.7 16.9-24.6-3.25-1.08-5.75-1.18-9.16-1.27-1.27-0.0335-2.54-0.067-3.85-0.102-1.02-0.0238-1.02-0.0238-2.06-0.0481-2.14-0.0504-4.27-0.107-6.41-0.166-6.07-0.166-12.1-0.321-18.2-0.469-3.72-0.091-7.44-0.191-11.2-0.295-1.41-0.038-2.82-0.0727-4.23-0.104-16.2-0.36-29-3.38-41.9-13.6-0.942-0.733-0.942-0.733-1.9-1.48-4.15-3.66-6.73-8.02-9.35-12.8-0.33-0.604-0.659-1.21-0.999-1.83-4.55-8.8-6.24-17.1-6.06-26.9-0.00322-0.929-0.00645-1.86-0.00977-2.81 0.0707-9.16 1.6-16.7 6.07-24.7 0.357-0.65 0.714-1.3 1.08-1.97 8.06-14.3 22.4-23.8 38.2-28.4 8.7-1.13 17.5-1.19 26.3-1.32 1.2-0.0208 2.4-0.0416 3.64-0.063 3.79-0.0647 7.58-0.124 11.4-0.183 2.59-0.0433 5.18-0.0869 7.77-0.131 6.31-0.106 12.6-0.208 18.9-0.307-1.79-10.1-9.55-18.3-16-26-0.626-0.762-1.25-1.52-1.9-2.31-5.1-6.01-10.9-10.9-17.1-15.7-0.727-0.58-1.45-1.16-2.2-1.76-1.71-1.43-1.71-1.43-3.8-1.24v-2c-21.9-12.6-21.9-12.6-46-19-0.33-0.33-0.66-0.66-1-1-8.45-1.31-17-1.24-25.5-1.25-0.759-0.00101-1.52-0.00201-2.3-0.00305-11 0.00989-21.5 0.405-32.2 3.25z" fill="#2C56BF"/>
<path transform="translate(1256 493)" d="m0 0c9.05 5.5 15.6 12.4 20.4 21.9 0.491 0.961 0.491 0.961 0.992 1.94 5.47 11.6 4.09 27.2 0.00781 39.1-2.81 5.9-6.19 10.6-11 15-0.908 1.09-1.8 2.2-2.69 3.31-0.763 0.887-1.53 1.77-2.31 2.69h-2c-0.495 1.49-0.495 1.49-1 3-1.53 1.51-1.53 1.51-3.5 3.12-4.13 3.48-7.88 7.25-11.6 11.2-1.88 1.72-1.88 1.72-3.88 1.72-0.227 0.557-0.454 1.11-0.688 1.69-1.69 2.97-3.78 5.03-6.31 7.31h-2c-0.495 1.49-0.495 1.49-1 3-1.43 1.4-1.43 1.4-3.31 2.94-4.5 3.79-8.58 7.92-12.6 12.2-1.31 1.34-2.67 2.63-4.04 3.91h-2c-0.268 0.639-0.536 1.28-0.812 1.94-1.19 2.06-1.19 2.06-4.19 3.06-0.33 0.99-0.66 1.98-1 3-1.62 0.938-1.62 0.938-4 1-4.93-2.29-7.85-4.47-11-9h2c0.0825-0.743 0.165-1.48 0.25-2.25 0.954-3.5 1.73-4.71 4.75-6.75 2.4-0.227 4.67-0.189 7.07-0.043 0.636 0.0142 1.27 0.0284 1.93 0.043 2.25-2.25 1.97-7.07 2.4-10.1 0.598-2.88 0.598-2.88 2.6-5.88 1.48 0.495 1.48 0.495 3 1 0.66-0.99 1.32-1.98 2-3h2c0.33-2.64 0.66-5.28 1-8-0.66-0.33-1.32-0.66-2-1-3.03-11.5-2.2-23.9-2.06-35.7 0.0277-2.87 0.0523-5.74 0.0712-8.61 0.0122-1.77 0.0297-3.54 0.0533-5.32 0.0278-3.39 0.0176-6.15-1.06-9.38v-2c-2.13-6.82-4.54-10.7-10.7-14.8-3.34-3.25-3.67-6.75-4.31-11.2 1.11-0.124 1.11-0.124 2.25-0.25 3.33-0.909 4.34-2.32 6.75-4.75 5.97-4.22 12-6.95 19-9 0.969-0.392 1.94-0.784 2.94-1.19 9.88-2.62 20.7-0.266 29.7 4.31z" fill="#9A5CF2"/>
<path transform="translate(1053 292)" d="m0 0c1.18 0.0108 1.18 0.0108 2.39 0.0218 0.829-2.92e-4 1.66-5.84e-4 2.51-8.85e-4 2.75 0.0014 5.5 0.017 8.25 0.0326 1.9 0.00373 3.81 0.00658 5.71 0.00858 5.01 0.00765 10 0.0273 15 0.0494 5.11 0.0204 10.2 0.0296 15.3 0.0397 10 0.0215 20.1 0.0556 30.1 0.0977 0.495 1.49 0.495 1.49 1 3-0.495 0.639-0.99 1.28-1.5 1.94-0.495 0.681-0.99 1.36-1.5 2.06 0.295 1.85 0.295 1.85 1 4v8c-28 0.33-56.1 0.66-85 1-1.58-3.16-1.18-6.53-1.19-10-0.0122-0.737-0.0245-1.47-0.0371-2.23-0.00526-1.92 0.103-3.85 0.225-5.77 2.55-2.55 4.17-2.24 7.64-2.25z" fill="#2C56BF"/>
<path transform="translate(1072,765)" d="m0 0 2 1c-2.71 3.66-5.37 6.19-9.12 8.75-13.7 9.77-27.6 22.7-34.9 38.2-0.664 1.41-1.36 2.81-2.09 4.19-2.86 5.43-5.25 11-7.52 16.7-0.289 0.71-0.578 1.42-0.876 2.15-5.01 12.9-6 25.2-6.19 38.8-0.0333 1.68-0.0678 3.35-0.104 5.03-0.0839 4.05-0.151 8.11-0.209 12.2-0.99 0.495-0.99 0.495-2 1-1.72-2.99-2.25-5.12-2.23-8.56 0.00113-0.874 0.00226-1.75 0.00342-2.65 0.0131-0.921 0.0261-1.84 0.0396-2.79 0.0079-0.944 0.0158-1.89 0.0239-2.86 0.398-32.7 12.9-64.8 35.6-88.7 0.846-0.804 1.69-1.61 2.56-2.44 0.598-0.642 1.2-1.28 1.81-1.95 6.58-6.95 14.6-13.7 23.2-18.1z" fill="#3256C1"/>
<path transform="translate(1072,765)" d="m0 0c0.66 0.33 1.32 0.66 2 1-2.71 3.66-5.37 6.19-9.12 8.75-13.1 9.28-27.1 21.7-33.9 36.6-1.64 3.52-3.31 5.08-6.94 6.69 4.54-12.4 13.5-24 23-33 0.598-0.642 1.2-1.28 1.81-1.95 6.58-6.95 14.6-13.7 23.2-18.1z" fill="#6559DA"/>
<path transform="translate(1042,793)" d="m0 0c0 4.08-1.6 5.15-4.25 8.19-2.82 3.33-5.22 6.33-7 10.3-1.85 3.69-3.04 4.85-6.75 6.5 3.65-9.92 9.43-18.7 18-25z" fill="#4D58CE"/>
<path transform="translate(1072,765)" d="m0 0c0.66 0.33 1.32 0.66 2 1-2.82 3.81-5.73 6.54-9.56 9.31-0.95 0.697-1.9 1.39-2.88 2.11-2.56 1.57-2.56 1.57-5.56 1.57 2.83-4.79 5.46-7.35 10.2-10.4 1.08-0.688 2.16-1.38 3.27-2.09 0.82-0.508 1.64-1.02 2.48-1.54z" fill="#4B58CD"/>
</svg>
